<svg xmlns="http://www.w3.org/2000/svg" viewBox="0 0 960 600" width="960" height="600">
<rect width="960" height="600" fill="transparent" rx="10"/>
<g transform="translate(60, 40)">
<svg width="20" height="20" viewBox="0 0 24 24" fill="none" stroke="#0969da" stroke-width="2" stroke-linecap="round" stroke-linejoin="round"><rect x="3" y="4" width="18" height="18" rx="2" ry="2"></rect><line x1="16" y1="2" x2="16" y2="6"></line><line x1="8" y1="2" x2="8" y2="6"></line><line x1="3" y1="10" x2="21" y2="10"></line></svg>
<text x="30" y="15" fill="#0969da" font-family="sans-serif" font-weight="bold" font-size="20">Contributions calendar</text>
</g>
<g transform="translate(520, 80)">
<svg width="18" height="18" viewBox="0 0 24 24" fill="none" stroke="#0969da" stroke-width="2" stroke-linecap="round" stroke-linejoin="round"><rect x="4" y="4" width="16" height="16" rx="2" ry="2"></rect><rect x="4" y="4" width="6" height="16"></rect></svg>
<text x="30" y="14" fill="#0969da" font-family="sans-serif" font-weight="bold" font-size="16">Commits streaks</text>
<g transform="translate(0, 24)">
<svg width="16" height="16" viewBox="0 0 24 24" fill="none" stroke="#8b949e" stroke-width="2" stroke-linecap="round" stroke-linejoin="round"><path d="M8.5 14.5A2.5 2.5 0 0011 12c0-1.38-.5-2-1-3-1.072-2.143-.224-4.054 2-6 .5 2.5 2 4.9 4 6.5 2 1.6 3 3.5 3 5.5a7 7 0 11-14 0c0-1.153.433-2.294 1-3a2.5 2.5 0 002.5 2.5z"></path></svg>
<text x="30" y="13" fill="#8b949e" font-family="sans-serif" font-size="15">Current streak 5 days</text>
</g>
<g transform="translate(0, 48)">
<svg width="16" height="16" viewBox="0 0 24 24" fill="none" stroke="#8b949e" stroke-width="2" stroke-linecap="round" stroke-linejoin="round"><path d="M12 2v20M17 5l-10 14M22 12H2M19 19L5 5"></path></svg>
<text x="30" y="13" fill="#8b949e" font-family="sans-serif" font-size="15">Best streak 26 days</text>
</g>
</g>
<g transform="translate(520, 170)">
<svg width="18" height="18" viewBox="0 0 24 24" fill="none" stroke="#0969da" stroke-width="2" stroke-linecap="round" stroke-linejoin="round"><circle cx="12" cy="12" r="3"></circle><line x1="3" y1="12" x2="9" y2="12"></line><line x1="15" y1="12" x2="21" y2="12"></line></svg>
<text x="30" y="14" fill="#0969da" font-family="sans-serif" font-weight="bold" font-size="16">Commits per day</text>
<g transform="translate(0, 24)">
<svg width="16" height="16" viewBox="0 0 24 24" fill="none" stroke="#8b949e" stroke-width="2" stroke-linecap="round" stroke-linejoin="round"><path d="M21 15v4a2 2 0 0 1-2 2H5a2 2 0 0 1-2-2v-4"></path><polyline points="17 8 12 3 7 8"></polyline><line x1="12" y1="3" x2="12" y2="15"></line></svg>
<text x="30" y="13" fill="#8b949e" font-family="sans-serif" font-size="15">Highest in a day at 20</text>
</g>
<g transform="translate(0, 48)">
<svg width="16" height="16" viewBox="0 0 24 24" fill="none" stroke="#8b949e" stroke-width="2" stroke-linecap="round" stroke-linejoin="round"><polyline points="16 18 22 12 16 6"></polyline><polyline points="8 6 2 12 8 18"></polyline></svg>
<text x="30" y="13" fill="#8b949e" font-family="sans-serif" font-size="15">Average per day at ~0.76</text>
</g>
</g>
</svg>